<mxfile host="app.diagrams.net" modified="2021-02-09T17:01:27.699Z" agent="5.0 (X11; Linux x86_64) AppleWebKit/537.36 (KHTML, like Gecko) Chrome/88.0.4324.146 Safari/537.36" etag="qaj931VjnfUyLgTBAoKk" version="14.3.0" type="github">
  <diagram id="C5RBs43oDa-KdzZeNtuy" name="Page-1">
    <mxGraphModel dx="868" dy="521" grid="1" gridSize="10" guides="1" tooltips="1" connect="1" arrows="1" fold="1" page="1" pageScale="1" pageWidth="827" pageHeight="1169" math="0" shadow="0">
      <root>
        <mxCell id="WIyWlLk6GJQsqaUBKTNV-0" />
        <mxCell id="WIyWlLk6GJQsqaUBKTNV-1" parent="WIyWlLk6GJQsqaUBKTNV-0" />
        <mxCell id="iDAoOkV91W8GGC_w7QWD-5" value="" style="edgeStyle=orthogonalEdgeStyle;rounded=0;orthogonalLoop=1;jettySize=auto;html=1;" edge="1" parent="WIyWlLk6GJQsqaUBKTNV-1" source="iDAoOkV91W8GGC_w7QWD-2" target="iDAoOkV91W8GGC_w7QWD-4">
          <mxGeometry relative="1" as="geometry" />
        </mxCell>
        <mxCell id="iDAoOkV91W8GGC_w7QWD-2" value="Strart" style="rounded=1;whiteSpace=wrap;html=1;" vertex="1" parent="WIyWlLk6GJQsqaUBKTNV-1">
          <mxGeometry x="330" y="20" width="120" height="60" as="geometry" />
        </mxCell>
        <mxCell id="iDAoOkV91W8GGC_w7QWD-7" value="" style="edgeStyle=orthogonalEdgeStyle;rounded=0;orthogonalLoop=1;jettySize=auto;html=1;" edge="1" parent="WIyWlLk6GJQsqaUBKTNV-1" source="iDAoOkV91W8GGC_w7QWD-4" target="iDAoOkV91W8GGC_w7QWD-6">
          <mxGeometry relative="1" as="geometry" />
        </mxCell>
        <mxCell id="iDAoOkV91W8GGC_w7QWD-4" value="Get 2 strings from user" style="shape=parallelogram;perimeter=parallelogramPerimeter;whiteSpace=wrap;html=1;fixedSize=1;" vertex="1" parent="WIyWlLk6GJQsqaUBKTNV-1">
          <mxGeometry x="330" y="120" width="120" height="60" as="geometry" />
        </mxCell>
        <mxCell id="iDAoOkV91W8GGC_w7QWD-9" value="" style="edgeStyle=orthogonalEdgeStyle;rounded=0;orthogonalLoop=1;jettySize=auto;html=1;" edge="1" parent="WIyWlLk6GJQsqaUBKTNV-1" source="iDAoOkV91W8GGC_w7QWD-6">
          <mxGeometry relative="1" as="geometry">
            <mxPoint x="390" y="320" as="targetPoint" />
          </mxGeometry>
        </mxCell>
        <mxCell id="iDAoOkV91W8GGC_w7QWD-6" value="Convert string to uppercase" style="rounded=0;whiteSpace=wrap;html=1;" vertex="1" parent="WIyWlLk6GJQsqaUBKTNV-1">
          <mxGeometry x="330" y="220" width="120" height="60" as="geometry" />
        </mxCell>
        <mxCell id="iDAoOkV91W8GGC_w7QWD-20" value="" style="edgeStyle=orthogonalEdgeStyle;rounded=0;orthogonalLoop=1;jettySize=auto;html=1;" edge="1" parent="WIyWlLk6GJQsqaUBKTNV-1" source="iDAoOkV91W8GGC_w7QWD-12" target="iDAoOkV91W8GGC_w7QWD-19">
          <mxGeometry relative="1" as="geometry" />
        </mxCell>
        <mxCell id="iDAoOkV91W8GGC_w7QWD-12" value="Check if characters are between ASCII 65 to 90 range" style="rhombus;whiteSpace=wrap;html=1;" vertex="1" parent="WIyWlLk6GJQsqaUBKTNV-1">
          <mxGeometry x="350" y="320" width="80" height="80" as="geometry" />
        </mxCell>
        <mxCell id="iDAoOkV91W8GGC_w7QWD-27" value="" style="edgeStyle=orthogonalEdgeStyle;rounded=0;orthogonalLoop=1;jettySize=auto;html=1;" edge="1" parent="WIyWlLk6GJQsqaUBKTNV-1" source="iDAoOkV91W8GGC_w7QWD-19" target="iDAoOkV91W8GGC_w7QWD-26">
          <mxGeometry relative="1" as="geometry" />
        </mxCell>
        <mxCell id="iDAoOkV91W8GGC_w7QWD-19" value="Compare value of character on points table" style="rounded=0;whiteSpace=wrap;html=1;" vertex="1" parent="WIyWlLk6GJQsqaUBKTNV-1">
          <mxGeometry x="330" y="440" width="120" height="60" as="geometry" />
        </mxCell>
        <mxCell id="iDAoOkV91W8GGC_w7QWD-30" value="" style="edgeStyle=orthogonalEdgeStyle;rounded=0;orthogonalLoop=1;jettySize=auto;html=1;" edge="1" parent="WIyWlLk6GJQsqaUBKTNV-1" source="iDAoOkV91W8GGC_w7QWD-26" target="iDAoOkV91W8GGC_w7QWD-29">
          <mxGeometry relative="1" as="geometry" />
        </mxCell>
        <mxCell id="iDAoOkV91W8GGC_w7QWD-26" value="Calculate sum of values" style="rounded=0;whiteSpace=wrap;html=1;" vertex="1" parent="WIyWlLk6GJQsqaUBKTNV-1">
          <mxGeometry x="330" y="540" width="120" height="60" as="geometry" />
        </mxCell>
        <mxCell id="iDAoOkV91W8GGC_w7QWD-28" value="True" style="text;html=1;strokeColor=none;fillColor=none;align=center;verticalAlign=middle;whiteSpace=wrap;rounded=0;" vertex="1" parent="WIyWlLk6GJQsqaUBKTNV-1">
          <mxGeometry x="400" y="410" width="40" height="20" as="geometry" />
        </mxCell>
        <mxCell id="iDAoOkV91W8GGC_w7QWD-33" value="" style="edgeStyle=orthogonalEdgeStyle;rounded=0;orthogonalLoop=1;jettySize=auto;html=1;" edge="1" parent="WIyWlLk6GJQsqaUBKTNV-1" source="iDAoOkV91W8GGC_w7QWD-29" target="iDAoOkV91W8GGC_w7QWD-31">
          <mxGeometry relative="1" as="geometry" />
        </mxCell>
        <mxCell id="iDAoOkV91W8GGC_w7QWD-29" value="Compare sum of both string" style="rounded=0;whiteSpace=wrap;html=1;" vertex="1" parent="WIyWlLk6GJQsqaUBKTNV-1">
          <mxGeometry x="330" y="640" width="120" height="60" as="geometry" />
        </mxCell>
        <mxCell id="iDAoOkV91W8GGC_w7QWD-34" value="" style="edgeStyle=orthogonalEdgeStyle;rounded=0;orthogonalLoop=1;jettySize=auto;html=1;" edge="1" parent="WIyWlLk6GJQsqaUBKTNV-1" source="iDAoOkV91W8GGC_w7QWD-31" target="iDAoOkV91W8GGC_w7QWD-32">
          <mxGeometry relative="1" as="geometry" />
        </mxCell>
        <mxCell id="iDAoOkV91W8GGC_w7QWD-31" value="Display highest sum string as winner" style="rounded=0;whiteSpace=wrap;html=1;" vertex="1" parent="WIyWlLk6GJQsqaUBKTNV-1">
          <mxGeometry x="330" y="740" width="120" height="60" as="geometry" />
        </mxCell>
        <mxCell id="iDAoOkV91W8GGC_w7QWD-32" value="End" style="rounded=1;whiteSpace=wrap;html=1;" vertex="1" parent="WIyWlLk6GJQsqaUBKTNV-1">
          <mxGeometry x="330" y="840" width="120" height="60" as="geometry" />
        </mxCell>
      </root>
    </mxGraphModel>
  </diagram>
</mxfile>
